<svg width="48" height="40" viewBox="0 0 48 40" fill="none" xmlns="http://www.w3.org/2000/svg">
<rect width="48" height="40" fill="#2F76A5"/>
<g clip-path="url(#clip0_230_8451)">
<path d="M36 20.0735C36 13.4045 30.627 7.99854 24 7.99854C17.37 8.00004 11.997 13.4045 11.997 20.075C11.997 26.1005 16.386 31.0955 22.122 32.0015V23.564H19.077V20.075H22.125V17.4125C22.125 14.387 23.9175 12.716 26.658 12.716C27.972 12.716 29.3445 12.9515 29.3445 12.9515V15.9215H27.831C26.3415 15.9215 25.8765 16.853 25.8765 17.8085V20.0735H29.2035L28.6725 23.5625H25.875V32C31.611 31.094 36 26.099 36 20.0735Z" fill="white"/>
</g>
<defs>
<clipPath id="clip0_230_8451">
<rect width="24" height="24" fill="white" transform="translate(12 8)"/>
</clipPath>
</defs>
</svg>
