<svg width="48" height="40" viewBox="0 0 48 40" fill="none" xmlns="http://www.w3.org/2000/svg">
<rect width="48" height="40" fill="#2F76A5"/>
<path d="M12 9.719C12 8.7695 12.789 8 13.7625 8H34.2375C35.211 8 36 8.7695 36 9.719V30.281C36 31.2305 35.211 32 34.2375 32H13.7625C12.789 32 12 31.2305 12 30.281V9.719ZM19.4145 28.091V17.2535H15.813V28.091H19.4145ZM17.6145 15.773C18.87 15.773 19.6515 14.942 19.6515 13.901C19.629 12.8375 18.8715 12.029 17.6385 12.029C16.4055 12.029 15.6 12.839 15.6 13.901C15.6 14.942 16.3815 15.773 17.5905 15.773H17.6145ZM24.9765 28.091V22.0385C24.9765 21.7145 25.0005 21.3905 25.0965 21.1595C25.356 20.513 25.9485 19.8425 26.9445 19.8425C28.248 19.8425 28.7685 20.8355 28.7685 22.2935V28.091H32.37V21.875C32.37 18.545 30.594 16.997 28.224 16.997C26.313 16.997 25.4565 18.047 24.9765 18.7865V18.824H24.9525C24.9605 18.8115 24.9685 18.799 24.9765 18.7865V17.2535H21.3765C21.4215 18.2705 21.3765 28.091 21.3765 28.091H24.9765Z" fill="white"/>
</svg>
