<svg width="48" height="40" viewBox="0 0 48 40" fill="none" xmlns="http://www.w3.org/2000/svg">
<rect width="48" height="40" fill="#2F76A5"/>
<path d="M19.539 30.5001C28.596 30.5001 33.5505 22.9956 33.5505 16.4991C33.5505 16.2891 33.5505 16.0761 33.5415 15.8661C34.5061 15.1678 35.3386 14.3033 36 13.3131C35.099 13.7103 34.1441 13.9722 33.1665 14.0901C34.1963 13.4745 34.9676 12.506 35.337 11.3646C34.3695 11.9377 33.3105 12.3401 32.2065 12.5541C31.4643 11.7636 30.4821 11.2399 29.4121 11.0642C28.3421 10.8885 27.2441 11.0704 26.288 11.582C25.3319 12.0935 24.5712 12.906 24.1237 13.8937C23.6761 14.8813 23.5668 15.989 23.8125 17.0451C21.8546 16.9469 19.9392 16.4383 18.1906 15.5522C16.4419 14.6661 14.899 13.4223 13.662 11.9016C13.034 12.9862 12.8424 14.2692 13.126 15.49C13.4096 16.7108 14.1472 17.7779 15.189 18.4746C14.4083 18.448 13.6448 18.2384 12.96 17.8626V17.9301C12.9613 19.0663 13.355 20.1672 14.0743 21.0467C14.7937 21.9262 15.7946 22.5304 16.908 22.7571C16.4854 22.8735 16.0488 22.9315 15.6105 22.9296C15.3015 22.9305 14.9931 22.9019 14.6895 22.8441C15.0042 23.8221 15.6169 24.6773 16.4419 25.2898C17.2668 25.9022 18.2627 26.2413 19.29 26.2596C17.5448 27.6303 15.3891 28.3737 13.17 28.3701C12.779 28.3717 12.3882 28.3492 12 28.3026C14.2523 29.7385 16.8679 30.5009 19.539 30.5001Z" fill="white"/>
</svg>
