<svg width="48" height="40" viewBox="0 0 48 40" fill="none" xmlns="http://www.w3.org/2000/svg">
<rect width="48" height="40" fill="#2F76A5"/>
<g clip-path="url(#clip0_230_8453)">
<path d="M32.4015 11.4891C31.3012 10.3786 29.9909 9.49819 28.547 8.89918C27.103 8.30017 25.5543 7.99453 23.991 8.00007C17.4405 8.00007 12.102 13.3371 12.096 19.8891C12.096 21.9876 12.645 24.0291 13.6815 25.8366L12 32.0001L18.306 30.3471C20.0505 31.2964 22.0049 31.7941 23.991 31.7946H23.997C30.549 31.7946 35.886 26.4576 35.892 19.8996C35.8935 18.3366 35.5857 16.7889 34.9864 15.3454C34.3871 13.9019 33.5081 12.5913 32.4 11.4891H32.4015ZM23.991 29.7816C22.2195 29.7822 20.4806 29.3055 18.957 28.4016L18.597 28.1856L14.856 29.1666L15.855 25.5171L15.621 25.1406C14.6307 23.5661 14.107 21.7431 14.1105 19.8831C14.1105 14.4441 18.546 10.0071 23.997 10.0071C25.2956 10.0047 26.5818 10.2595 27.7815 10.7566C28.9812 11.2537 30.0706 11.9834 30.987 12.9036C31.9065 13.8201 32.6355 14.9097 33.1319 16.1094C33.6282 17.3091 33.8822 18.5952 33.879 19.8936C33.873 25.3521 29.4375 29.7816 23.991 29.7816ZM29.4135 22.3806C29.118 22.2321 27.6585 21.5136 27.384 21.4116C27.111 21.3141 26.9115 21.2631 26.7165 21.5601C26.517 21.8556 25.947 22.5291 25.776 22.7226C25.605 22.9221 25.428 22.9446 25.131 22.7976C24.8355 22.6476 23.877 22.3356 22.743 21.3201C21.858 20.5326 21.2655 19.5576 21.0885 19.2621C20.9175 18.9651 21.072 18.8061 21.2205 18.6576C21.351 18.5256 21.516 18.3096 21.6645 18.1386C21.8145 17.9676 21.864 17.8416 21.9615 17.6436C22.059 17.4426 22.0125 17.2716 21.939 17.1231C21.864 16.9746 21.2715 15.5091 21.021 14.9181C20.781 14.3346 20.5365 14.4156 20.3535 14.4081C20.1825 14.3976 19.983 14.3976 19.7835 14.3976C19.6328 14.4013 19.4846 14.4362 19.348 14.4999C19.2115 14.5637 19.0896 14.655 18.99 14.7681C18.717 15.0651 17.9535 15.7836 17.9535 17.2491C17.9535 18.7146 19.0185 20.1231 19.1685 20.3226C19.3155 20.5221 21.2595 23.5206 24.243 24.8106C24.948 25.1181 25.503 25.2996 25.9365 25.4376C26.649 25.6656 27.2925 25.6311 27.8055 25.5576C28.3755 25.4706 29.562 24.8376 29.8125 24.1431C30.0585 23.4471 30.0585 22.8531 29.9835 22.7286C29.91 22.6026 29.7105 22.5291 29.4135 22.3806Z" fill="white"/>
</g>
<defs>
<clipPath id="clip0_230_8453">
<rect width="24" height="24" fill="white" transform="translate(12 8)"/>
</clipPath>
</defs>
</svg>
